<?xml version="1.0" encoding="UTF-8"?>
<svg id="_レイヤー_1" data-name="レイヤー 1" xmlns="http://www.w3.org/2000/svg" viewBox="0 0 587.15 420.85">
  <defs>
    <style>
      .cls-1 {
        fill: #45342f;
      }
    </style>
  </defs>
  <path class="cls-1" d="M274.44,112.46c-1.36-.72-3.13-1.56-4.7-2.16-1.58-.6-2.71-.79-3.79-.88-1.08-.1-2.11-.1-3.52-.23-1.43-.1-1.06.46-.18,1.12.67.51,1.62,1.14,2.45,1.64.28.17.55.32.78.45,1.91,1.02,3.9,1.81,5.88,2.65,1.97.84,4.76,1.29,6.99,2.87,1.1.78,2.25.36,2.4-.59.13-.83-.61-2.14-3-3.19-.31-.14-.64-.27-1-.39,0,0-.96-.57-2.32-1.28Z"/>
  <path class="cls-1" d="M255.04,81.24c.38-.02.85-.33,1.13-.75.42-.63,1.06-1.41,2.34-2.74,1.26.41,2.41.88,3.61,1.41.42.19.91.54,1.09.8.18.26.45.6,1.07.56,1.6-.1,3.58-1.68,3.4-4.45-.09-1.5-.77-2.74-1.73-3.58.8-.27,1.37-.41,2.35-.48,1.66-.11,3.64.61,4.43,1.85.09.16.16.34.17.48.01.22-.06.39-.21.48-.87.47-1.64.81-3.08,1.37l.14.43c1.33-.17,2.14-.25,3.34-.32.49-.03,1.1.07,1.44.32.34.25.77.47,1.2.44.71-.05,1.14-.54,1.08-1.46-.05-.71-.4-1.5-1.08-2.33-1.39-1.71-3.77-2.65-6.9-2.45-1.69.11-2.65.36-3.78.76-.86-.6-1.52-1.08-2.31-1.6-.71-.47-1.01-.84-1.04-1.27-.08-1.28.74-2.1,1.6-2.75.49-.39,1.08-.56,1.49-.61.27-.04.6-.04.93,0,.22.01.52.08.91.05.57-.04.93-.44.89-1.07-.04-.65-.31-1.02-.71-1.35-.49-.38-1.02-.62-2.19-.9-1.44-.34-2.58-1.45-2.94-2.79l-.46.08c-.11.42-.13.88-.1,1.4.08,1.2.75,2.27,1.84,3.19-1.94,2.5-2.66,4.13-2.58,5.3.06.9.45,1.42.99,1.9.7.61,1.26.93,1.75,1.36-2.34,1.35-5.01,3.19-7.13,4.72-.7.51-1.18.7-1.59.73-.38.02-.82-.38-1.17-1.18l-.46.03c-.28.78-.36,1.25-.33,1.69.03.49.35,1.26,1.05,1.93.61.56,1.07.86,1.56.83ZM264.01,73.37c.71.8,1.06,1.68,1.12,2.58.07,1.03-.47,1.61-1.59,1.69-.87.06-2.44-.09-4.4-.54,1.55-1.44,3.26-2.78,4.87-3.72Z"/>
  <path class="cls-1" d="M289.11,167.34c1.58.86,3.39,1.76,5.2,2.88,1.82,1.1,3.59,2.52,4.95,4.24.32.44.7.77,1.01,1.06.31.28.63.48.93.6.59.23,1.1.13,1.29-.36.09-.25.11-.59,0-1.05-.11-.45-.29-1.04-.7-1.66-.39-.64-.92-1.39-1.7-2.14-.74-.79-1.73-1.58-2.92-2.4,0,0-.37-.3-1-.82-.31-.26-.7-.56-1.15-.88-.45-.32-.94-.69-1.49-1.06-2.17-1.5-5.09-3.13-7.69-4.3-2.6-1.16-4.44-1.69-6.18-2.06-1.74-.39-3.39-.64-5.68-1.13-2.3-.46-1.74.19-.21,1.12,1.53.95,3.99,2.25,5.62,3.08,3.28,1.62,6.57,3.12,9.72,4.86Z"/>
  <path class="cls-1" d="M284.22,78.34c.3.02.64-.17,1.02-.56.27-.28.66-.86.99-1.27,1.08,1.41,1.54,2.62,1.63,3.72.09,1.07.28,1.41.94,1.46.46.03.78-.19,1.08-.58.42-.57.61-1.38.69-2.46.08-1.11.08-3.93.27-7.05,3.06-3.2,4.55-4.6,6.14-5.89.72-.58,1.43-.91,1.97-.88.46.03.88.36.8,1.5-.1,1.52-.35,3.17-.72,5.28-.45,2.62-.68,4.27-.74,5.19-.15,2.2.9,3.53,3.08,3.65,3.21.17,5.84-2.33,7.18-6.33l-.31-.21c-1.96,3.01-4.38,4.48-5.95,4.4-1.25-.06-1.65-.63-1.56-1.96.12-1.69.69-4.51,1.29-7.28.24-1.13.43-1.83.47-2.43.12-1.71-1.58-2.89-2.88-2.98-.82-.06-1.41.18-2.2.67-1.2.74-3.25,2.4-6.42,5.27l.09-.54c.61-.97.98-1.54,1.31-1.96.33-.41.43-.65.44-.9.01-.19-.07-.63-.43-.93-.21-.18-.37-.24-.5-.25-.08,0-.19-.01-.28.04.2-1.3.29-1.84.41-2.4.08-.3.26-.64.47-.87.24-.26.39-.49.41-.82.02-.33-.09-.72-.6-1.16-.88-.74-1.89-1.14-2.4-1.18-.38-.03-.93.05-1.58.3l.03.38c.54.12.91.31,1.22.55.36.27.38.79.34,1.47-.08,1.2-.23,2.93-.32,4.29-1.85.69-3.02.97-3.72.92-.54-.04-.97-.18-1.32-.69l-.31.09c.04,1.07.33,1.58.85,2.27.38.46.75.65,1.05.67.22.02.41-.08.76-.33.43-.32,1.24-.57,2.5-1.03-.07.57-.11,1.14-.2,1.71-1.08,1.76-2.39,3.39-3.8,4.79-.64.64-1.25,1.14-1.81,1.65-.44.38-.67.66-.71,1.26-.05.76.61,1.38,1.35,1.43ZM288.82,73.33c-.13,1.49-.22,2.88-.32,3.88l-.11.02c-.55-.34-1.25-.82-1.74-1.24.63-.78,1.55-1.83,2.18-2.66Z"/>
  <path class="cls-1" d="M134,207.7c.34.08.73.16,1.13.23.41.1.84.2,1.26.28.85.15,1.69.37,2.36.49.97.19,1.92.39,2.87.6,1.67.37,3.32.79,4.96,1.35,1.29.42,2.8.83,4.41,1.33,1.61.51,3.29,1.15,5.05,1.89.45.18.89.26,1.27.28.38.01.73-.08.99-.19.52-.24.71-.68.55-1.16-.08-.24-.25-.5-.5-.74-.13-.13-.27-.24-.44-.37-.17-.14-.37-.27-.59-.4-.89-.52-2.2-1.13-4.24-1.78,0,0-1.26-.64-3.1-1.47-1.83-.82-4.3-1.73-6.52-2.18-.43-.08-.83-.14-1.21-.19-.11-.02-.23-.04-.34-.05-.48-.06-.93-.06-1.35-.08-.42,0-.81-.02-1.19.02-.38.03-.74.08-1.09.12-.35.05-.7.09-1.04.15-.34.07-.69.15-1.06.22-.36.07-.73.14-1.13.22-.39.1-.81.19-1.26.29-1.79.38-1.15.79.21,1.12Z"/>
  <path class="cls-1" d="M272.59,175.53c-1.09-.98-2.57-2.14-3.97-2.97-1.41-.83-2.48-1.15-3.51-1.34-1.03-.19-2.01-.26-3.35-.43-1.34-.14-1.02.43-.23,1.11.79.7,1.99,1.62,2.77,2.22,1.59,1.13,3.21,2.15,4.8,3.29,1.57,1.12,3.99,2.15,5.55,4.17.77,1,1.97.87,2.38,0,.4-.84.01-2.52-2.62-4.32,0,0-.73-.76-1.82-1.74Z"/>
  <path class="cls-1" d="M282.96,148.09c2.25,1.38,4.56,2.58,6.81,3.91,1.12.66,2.46,1.3,3.81,2.07,1.36.77,2.71,1.71,3.82,2.91.55.6,1.14.9,1.66.94.51.04.95-.19,1.11-.65.16-.46.06-1.19-.55-2.1-.6-.91-1.71-1.99-3.49-3.07,0,0-1.06-.9-2.6-2.01-1.54-1.12-3.59-2.42-5.45-3.36-1.86-.94-3.2-1.34-4.49-1.62-1.28-.28-2.51-.45-4.19-.81-1.69-.34-1.31.28-.27,1.11,1.04.84,2.72,1.96,3.84,2.68Z"/>
  <path class="cls-1" d="M293.1,109.99c.46.45.98.88,1.38,1.15,1.21.79,2.51,1.25,3.82,1.75,1.3.49,3.22.44,4.71,1.48.65.46,1.4-.01,1.67-.76.33-.94-.11-2.32-2.49-2.85,0,0-2.53-1.43-4.59-2.15-2.06-.71-3-.22-4.83-.35-.92-.06-.78.47-.27,1.11.17.21.37.42.59.64Z"/>
  <path class="cls-1" d="M247.44,118.96c1.11.58,2.65,1.39,3.96,2.09.41.22.8.43,1.15.63,2.91,1.54,5.79,3.11,8.61,4.85.71.42,1.46.89,2.27,1.33.79.48,1.64.94,2.47,1.48,1.69,1.04,3.39,2.28,4.85,3.77,1.45,1.49,3,1.66,3.23.64.21-.99-.94-3.34-5.31-6.2,0,0-.34-.27-.9-.74-.56-.47-1.39-1.09-2.34-1.81-1.92-1.42-4.48-3.09-6.83-4.3-2.35-1.2-4.05-1.74-5.69-2.08-.75-.17-1.49-.3-2.28-.41-.92-.14-1.91-.25-3.08-.39-2.2-.19-1.56.4-.11,1.13Z"/>
  <path class="cls-1" d="M182.83,163.95c.81.85,2.23,1.94,3.23,2.54,1.99,1.2,4.09,2.04,6.14,2.94,1.03.45,2.24.8,3.48,1.28,1.24.47,2.51,1.06,3.58,1.96,1.05.88,2.27.6,2.5-.34.11-.47-.05-1.11-.65-1.83-.61-.71-1.66-1.5-3.31-2.16,0,0-1-.64-2.41-1.41-1.42-.77-3.26-1.66-4.86-2.31-3.2-1.3-4.54-.98-7.32-1.73-1.38-.38-1.18.22-.37,1.08Z"/>
  <path class="cls-1" d="M171.78,182.28c-1.9-.04-1.38.5-.05,1.14,1.34.64,3.47,1.43,4.89,1.89,2.84.89,5.69,1.56,8.46,2.43,1.39.42,2.97.81,4.59,1.37,1.61.56,3.25,1.36,4.54,2.54.31.31.65.5.94.67.29.17.58.26.85.29.54.05,1-.14,1.15-.62.07-.24.07-.55-.05-.93-.12-.38-.34-.86-.75-1.33-.2-.24-.43-.5-.71-.76-.28-.26-.61-.5-.97-.76-.18-.13-.38-.26-.58-.39-.21-.12-.43-.24-.66-.36-.46-.23-.96-.5-1.52-.69,0,0-.35-.19-.93-.5-.29-.17-.65-.32-1.06-.52-.41-.19-.86-.42-1.36-.61-1.98-.85-4.56-1.71-6.82-2.23-2.25-.52-3.8-.63-5.25-.63-1.45-.01-2.81.07-4.71.02Z"/>
  <path class="cls-1" d="M171.58,213.71c1.18.84,3.21,1.81,4.57,2.32,2.74,1.03,5.54,1.65,8.26,2.4,1.36.38,2.93.64,4.52,1.07,1.57.43,3.25,1.05,4.39,2.12.56.53,1.01.77,1.48.85.44.08.96.02,1.22-.4.27-.4.25-1.33-.56-2.36-.8-1.03-2.31-2.07-4.49-2.73,0,0-1.37-.67-3.3-1.36-1.92-.7-4.39-1.43-6.52-1.94-4.24-1.01-5.81-.52-9.35-1.11-1.74-.33-1.41.27-.23,1.12Z"/>
  <path class="cls-1" d="M206.33,208.18c1.53.66,3.03,1.61,4.16,2.9.58.63,1.14,1.01,1.68,1.11.53.1,1-.07,1.19-.53.09-.23.12-.54.04-.92-.04-.19-.1-.4-.2-.64-.09-.24-.22-.48-.39-.73-.66-1.02-1.95-2.28-4.05-3.35,0,0-.33-.21-.88-.57-.55-.38-1.36-.81-2.3-1.31-1.9-.99-4.42-1.96-6.64-2.55-2.21-.59-3.74-.72-5.17-.74-1.43-.03-2.77.04-4.63-.03-1.87-.06-1.36.49-.06,1.14,1.3.66,3.39,1.46,4.76,1.94,2.76.92,5.51,1.66,8.15,2.65,1.32.49,2.83.95,4.35,1.64Z"/>
  <path class="cls-1" d="M153.51,225.36c.75.2,1.56.36,2.36.61,1.62.46,3.28,1.12,4.74,2.12.74.49,1.42.69,1.96.64.54-.06.93-.36.97-.86.04-.49-.26-1.21-1.13-2.01-.86-.79-2.3-1.68-4.47-2.38,0,0-.34-.16-.92-.43-.58-.28-1.41-.61-2.39-.99-1.95-.74-4.53-1.48-6.81-1.81-.57-.1-1.1-.13-1.58-.17-.49-.04-.94-.05-1.37-.03-.43.01-.83.02-1.21.06-.16.02-.3.04-.45.06-.22.03-.45.06-.66.09-1.43.23-2.75.58-4.58,1.05-1.83.51-1.13.87.27,1.11,1.15.21,2.76.46,4.06.68.3.05.59.1.85.15,2.77.43,5.5.9,8.21,1.6.68.16,1.4.36,2.16.51Z"/>
  <path class="cls-1" d="M133.06,230.88c.82.64,2.21,1.35,3.17,1.68.99.35,2,.58,3.01.75.94.16,1.9.27,2.84.38,1.97.22,4.48-.31,6.88.31,2.39.63,3.31-3.48-2.63-3.3,0,0-2.98-.58-5.65-.96-.37-.05-.74-.1-1.09-.15-2.87-.38-3.93.23-6.39.17-1.23-.04-.97.49-.15,1.13Z"/>
  <path class="cls-1" d="M133.45,192.4c.38.24.84.56,1.29.82.45.3.88.54,1.23.75.69.37,1.38.76,2.09,1.1.24.12.48.24.73.37.49.24.98.48,1.5.74.78.38,1.76.65,2.83.93,1.07.27,2.18.56,3.3.96.56.23,1.07.07,1.38-.2.32-.28.45-.73.37-1.2-.08-.47-.38-.95-.91-1.31-.54-.4-1.3-.66-2.47-.91,0,0-.08-.04-.22-.12-.28-.15-.81-.43-1.46-.8-.98-.56-2.27-1.34-3.55-1.89-1.27-.55-2.28-.65-3.18-.66-.92.04-1.77.15-2.9.28-1.14.13-.77.62-.02,1.14Z"/>
  <path class="cls-1" d="M169.84,204.02c1.11.24,2.27.49,3.42.92.57.23,1.1.1,1.43-.17.33-.28.48-.72.4-1.19-.08-.47-.39-.95-.96-1.34-.58-.4-1.43-.71-2.71-.92,0,0-.79-.36-1.87-.88-1.08-.53-2.46-1.24-3.71-1.79-2.51-1.1-3.68-.8-5.98-1.19-1.16-.18-.95.39-.31,1.1.65.71,1.7,1.62,2.45,2.15,1.48,1.03,3.12,1.79,4.83,2.51.85.36,1.91.59,3.02.82Z"/>
  <path class="cls-1" d="M182.53,152.08s-.1-.03-.26-.08c-.11-.03-.24-.07-.42-.13-.43-.13-1.03-.29-1.73-.46-1.39-.33-3.14-.66-4.59-.88-1.45-.23-2.41-.23-3.33-.22-.92.01-1.81.06-3-.22-1.18-.29-1.08.27-.37,1.08.51.59,1.4,1.25,2.23,1.71.3.17.6.32.87.43,1.99.85,4.06,1.11,6.01,1.4.98.15,2.09.13,3.24.22,1.14.09,2.33.31,3.35.9.52.28.99.31,1.39.13.4-.18.71-.54.76-1.01.05-.46-.16-1.06-.81-1.63-.65-.55-1.76-1.08-3.36-1.25Z"/>
  <path class="cls-1" d="M349.41,90.01c.46.16,1.15.02,1.45-.86.08-.23.11-.57.14-.99.02-.14.02-.31.08-.49.12-.36.39-.82.96-1.46,3.83-4.45,6.67-5.61,8.48-4.99,1.93.66,3.35,3.77,2.81,5.68-.11.4-.35.6-.78.6-.86,0-1.76-.08-2.76-.19l-.12.36c.94.38,1.74.8,2.27,1.18.39.28.8.76.97,1.37.12.41.3.88.87,1.08.93.32,1.66-.15,2.18-1.67,1.09-3.2-.65-7.86-4.78-9.27-2.86-.98-5.35.47-10.96,4.66-.34.23-.57.32-.78.25-.16-.05-.28-.18-.42-.46-.39-.8-.32-2.44.27-4.17.49-1.42,1.09-2.77,1.53-3.37.23-.33.47-.79.57-1.07.11-.34.08-.75-.03-1.19-.23-.92-.58-1.58-1.07-2.27-.31-.45-.69-.84-1.17-1.12l-.25.23c.32.83.36,1.39.24,2.07-.13.71-.49,1.76-.74,2.48-2.15,6.12-2.07,8.48-1.01,11.2.62,1.56,1.46,2.2,2.03,2.39Z"/>
  <path class="cls-1" d="M375.27,169.77c-.26.57-.54,1.15-.98,1.62-.38.5-.57.96-.5,1.43.06.45.33.86.78,1.01.44.14,1.11.04,1.88-.58.18-.16.37-.35.56-.58.19-.22.39-.48.55-.79.12-.21.23-.44.35-.68.05-.11.11-.22.16-.34.13-.39.26-.81.38-1.26,0,0,.03-.07.09-.2.05-.13.12-.33.2-.58.08-.25.19-.55.3-.89.08-.35.18-.74.28-1.15.36-1.68.47-3.9.14-5.76-.06-.47-.18-.89-.29-1.27-.11-.39-.22-.74-.38-1.06-.14-.32-.29-.61-.43-.89-.16-.27-.33-.52-.5-.77-.67-.97-1.44-1.78-2.5-2.85-1.1-1.05-1.12-.33-.85.75.03.12.06.26.09.38.25,1.07.55,2.39.69,3.31.4,2.01.67,4,.62,6-.05.99.02,2.14-.19,3.34-.06.61-.26,1.2-.46,1.8Z"/>
  <path class="cls-1" d="M425.01,196.82c-.64-.04-1.38.25-2.11.96-.74.71-1.46,1.84-2.21,3.56,0,0-.19.25-.52.66-.31.42-.79.98-1.33,1.64-1.11,1.3-2.6,2.84-3.93,4.11-1.33,1.27-2.12,2.23-2.86,3.2-.37.48-.74.95-1.15,1.45-.43.47-.89,1-1.52,1.52-1.24,1.04-.54,1.36.86,1.25,1.39-.1,3.46-.75,4.69-1.43,1.67-.87,3.13-2.05,4.46-3.38.66-.66,1.29-1.36,1.89-2.08.91-1.08,1.65-2.5,2.39-3.99.48-.94.95-1.92,1.47-2.87.3-.55.61-1.1.97-1.63.5-.73.52-1.48.29-2.03-.24-.55-.76-.91-1.39-.94Z"/>
  <path class="cls-1" d="M381.01,205.17c-3.9-1.79-9.21,3.02-3.24,10.15,9.65.05,7.15-8.35,3.24-10.15Z"/>
  <path class="cls-1" d="M381.2,97.87c2.36-1.38,4.23-3.15,5.91-5.12,1.92.72,3.63,1.39,4.91,1.94.15.07.16.17.05.33-1.67,2.61-3.6,5.06-4.89,6.36-.87.88-1.39,1.07-1.59,1.1-.17.04-.45-.07-.69-.2-.68-.34-1.46-.85-2.53-1.69l-.33.35c.66.94.9,1.24,1.03,1.52.31.73.23,1.06,0,1.71-.16.44-.13.82.28,1.02,1.39.69,3.13.56,4.59-.78,1.4-1.28,3.4-3.69,5.8-7.03.22-.32.4-.38.82-.41.51-.05.7-.17.83-.44.18-.37.15-.84-.46-2.12-.4-.9-.73-1.28-1.05-1.44-.19-.1-.52-.11-.78-.02-.33.11-.73,0-1.26-.17-1.01-.35-2.13-.79-3.64-1.43.55-.67.88-1.08,1.46-1.77.13-.15.41-.34.6-.4.4-.13.61-.24.76-.54.22-.44.07-1-.53-1.91-.56-.83-1.04-1.4-1.62-1.69-.39-.2-1.16-.31-1.91-.32l-.18.37c.65.48,1.01.9,1.18,1.23.11.21-.01.45-.15.72-.48.89-1.16,1.95-2.14,3.31-1.99-.78-3.56-1.42-4.68-1.98-.73-.37-1.24-.87-1.79-1.9l-.41.04c-.18.55-.18,1.46.05,2.52.17.82.5,1.32.79,1.46.22.11.45.13.73.12.28-.01.71.05,1.38.23.88.26,1.71.55,2.8.92-1.68,2.02-3.84,3.84-5.99,5.08-1.74.99-4.13,1.8-7.25,2.07v.49c4.02.79,7.32-.02,9.91-1.53Z"/>
  <path class="cls-1" d="M368.03,241.94c.37.13.88.27,1.48.35,1.2.21,2.78.21,4.39.06,0,0,0,0,.01,0,1.61-.16,3.21-.55,4.46-.95,2.48-.83,4.81-2.02,6.97-3.39,2.16-1.37,4.17-2.88,6.13-4.41,1.94-1.51,3.9-3.42,6.05-5.27,2.64,1.01,6.28,2.09,8.87,2.64,5.96,1.26,12.07,1.77,18.18,1.76,3.06,0,6.5-.36,10.09-.86,3.6-.52,7.34-1.26,11.11-2.03.64-.13,1.23-.29,1.74-.45l1.01-.32.11-.91c.04-.34.07-.67.03-1.06-.03-.38-.14-.78-.29-1.1-.02-.04-.04-.07-.06-.1,1.63-.16,3.23-.61,4.71-1.15.64-.24,1.24-.53,1.93-.91.53-.27,1.05-.55,1.57-.83.64-.35,1.27-.7,1.89-1.04l-.1-.33-.17-.39c-.11-.25-.22-.51-.34-.77-.07-.17-.16-.34-.24-.5.25-.71.49-1.42.72-2.09,1.66,0,3.39-.24,4.77-.87.2-.1.33-.15.65-.33.29-.14.55-.32.78-.51l.72-.58c.24-.19.5-.38.67-.61.39-.44.77-.85,1.16-1.32.39-.47.81-.96,1.17-1.42l-2.75-1.32c-.48-.2-1-.38-1.51-.58-.25-.1-.51-.19-.78-.27l-.68-.19c-.21-.06-.42-.1-.63-.15-1-.25-2.01-.45-3-.58-2.42-.34-4.81-.44-7.18-.47-3.09-.03-6.52.3-10.11.66-3.59.35-7.35.75-11.1.76-2.89,0-4.85.58-5.17,1.28-.09.2-.05.41.16.63.47.47,1.77.92,4.1,1.1,2.32.19,5.65.07,10.14-.42,0,0,.75-.02,2.02-.06,1.27-.04,3.05-.08,5.1-.1,4.09-.03,9.33.05,13.49.85.43.09.85.17,1.23.27l.15.04h.02s0,0,0,0h.01s.07-.03.15-.03c.08.03.11.14-.03.31-.78.53-1.66.92-2.63,1.19-1.96.54-4.21.67-7.2.64-1.9,0-2.58.16-2.42.37.16.22,1.14.49,2.54.82.02,0,.05.01.08.02-.19.21-.31.48-.3.79,0,.51.39,1.12,1.09,1.67.16.12.33.26.52.41.12.08.1.09.12.13l.04.08c.05.1.12.13.33.32v.02s.03.05-.04.06c-.03,0-.12,0-.25.02-.05,0-.11,0-.15,0h-.03s0-.02-.1.02c-.16.06-.32.11-.49.17-1.35.47-3,.93-4.42,1.22-1.59.34-2.64.57-3.64.78-1.02.2-2.03.41-3.45.23-1.41-.22-1.22.35-.24,1.17.49.38,1.19.79,1.95,1.11.38.16.77.28,1.15.4.38.11.75.17,1.08.23.21.03.41.04.62.06.05.25.12.52.15.74,0,.03,0,.05,0,.07-2.2.27-5.33.93-9.76,1.7,0,0-.73.07-1.97.18-.62.06-1.37.08-2.21.13-.42.02-.87.05-1.34.07-.47.02-.96.02-1.47.04-4.05.12-9.22-.06-13.63-.41-4.41-.35-7.37-.55-10.15-.74-2.1-.13-4.1-.28-6.53-.61,1.78-1.42,3.7-2.72,5.81-3.6,1.34-.54,2.27-1.23,2.79-1.87.5-.65.57-1.34,0-1.77-.56-.43-1.79-.64-3.72-.11-.97.25-2.08.72-3.34,1.4-1.25.7-2.62,1.63-4.07,2.84,0,0-2.12,1.38-4.86,3.39-2.75,2-6.13,4.56-9.07,6.5-2.94,1.94-4.86,3.18-6.74,4.29-1.88,1.09-3.74,2.07-6.64,2.65-1.45.26-1.98.48-1.84.75.07.13.31.26.68.39Z"/>
  <path class="cls-1" d="M425.55,132.93c.25.05.66.34,1.03.58,1.13.79,2.81,2.03,4.24,3.22,1.1.91,1.84,1.63,2.9,2.65.51.49,1.18,1.21,1.67,1.84.35.42.95,1.26,1.22,1.52.43.42.8.35,1.1.04.3-.31.37-.74.27-1.22-.17-.81-.59-1.74-.9-2.05-.2-.19-.33-.25-.54-.3-.23-.07-.43-.15-.8-.43-.39-.3-.63-.49-1.08-.89-.72-.62-1.23-1.08-1.94-1.68.87-.67,1.69-1.28,2.68-2.03.21-.14.44-.3.76-.44.17-.06.3-.12.46-.28.15-.16.15-.43.08-.72-.04-.27-.15-.67-.41-1.19.98.72,1.72,1.24,2.93,2.26.43.34.84.74,1.27,1.11.47.42.84.43,1.1.15.25-.25.43-.68.19-1.37-.3-.75-.64-1.3-.89-1.55-.12-.11-.35-.23-.52-.24-.41-.05-.66-.1-.91-.23-.9-.49-1.7-1.03-3.08-2.07-1.27-.96-1.97-1.49-2.48-1.98-.37-.36-.67-.76-.83-1.06-.2-.34-.28-.73-.35-1.09l-.39-.07c-.21.37-.37.89-.41,1.76-.04.79.23,1.21.47,1.44.14.13.29.25.66.49.53.36,1.01.68,1.54,1.11.3.67.08,1.14-.26,1.49-.93,1-2.05,2.04-3.11,2.94-.15.12-.19.12-.39-.03-1.27-1.04-2.31-1.85-3.4-2.76-.43-.34-.92-.77-1.31-1.15-.43-.45-.75-1.03-.8-1.68h-.44c-.23.3-.37.84-.42,1.4-.12,1.1.17,1.9.48,2.21.12.11.35.23.6.28Z"/>
  <path class="cls-1" d="M377.5,182.21c-.74-.57-1.47-.98-2.09-1.34-.22-.12-.42-.21-.63-.3-.09-.04-.19-.1-.28-.13-.28-.12-.54-.22-.79-.29-.46-.12-.86-.13-1.15-.03-.33.11-.53.36-.53.77,0,.39.15.91.54,1.58.19.34.46.68.78,1.07.16.19.34.4.53.61.2.2.42.4.66.62.24.21.49.43.77.66.28.22.58.43.9.66.63.47,1.37.89,2.18,1.34,1.64.87,3.66,1.7,6.06,2.35,0,0,.2.07.55.19.36.13.88.32,1.55.51,1.33.43,3.22.92,5.44,1.38,4.43.92,10.17,1.36,15.04,1.21,4.88-.15,8.08-.75,11.03-1.44,2.95-.71,5.66-1.51,9.52-2.56,1.29-.37,1.99-.65,2.25-.86.5-.42-.74-.58-2.75-.58-3.03,0-7.76.14-10.88.22-6.23.22-12.41.44-18.51-.09-3.04-.28-6.47-.52-10-1.3-3.52-.74-7.15-2.08-10.2-4.25Z"/>
  <path class="cls-1" d="M433.32,187.32c0,.07,0,.16,0,.22v3.47c8.22,1.7,16.1-12.4,10.56-18.54-7.67-8.49-10.6,9.32-10.56,14.84Z"/>
  <path class="cls-1" d="M421.12,112.1c.52-.27.88-.32,1.42-.24.49.11.89-.08,1.01-.26.26-.38.23-.9-.13-2.15-.31-1.08-.67-1.62-.93-1.81-.13-.09-.48-.17-.81-.13-.69.09-1.13-.09-1.7-.42-1.7-.95-3.93-2.23-6.14-3.53-.85-.49-2.32-1.38-3.2-1.99-.72-.5-1.06-.9-1.41-2.08l-.46-.05c-.46.91-.52,1.27-.45,2.28.07,1.14.47,1.95.85,2.22.2.14.41.22.69.25.38.03.75.16,1.46.48,2.35,1.06,4.98,2.43,6.85,3.43.87.47,1.14.66,1.29.77.22.16.15.31-.04.44-6.53,4.53-12.92,6.09-19.83,5.15l-.1.53c6.87,2.38,12.62,2.09,21.63-2.87Z"/>
  <path class="cls-1" d="M459.31,183.51s1.35-.33,3.22-.73c1.86-.41,4.24-.85,6.29-1.16,2.04-.32,3.39-.53,4.67-.72,1.28-.2,2.48-.35,4.2-.3,1.71.11,1.27-.19-.03-.6-1.29-.38-3.45-.64-4.88-.63-2.87,0-5.69.48-8.45,1.07-2.78.59-6.08,1.88-9.49,2.74-1.71.43-2.55,1.24-1.99,1.55.57.32,2.51.1,6.46-1.21Z"/>
  <path class="cls-1" d="M329.59,145.67c.54,1.11,1.61,2.65,2.4,3.58,1.58,1.86,3.38,3.42,5.09,5.04.86.81,1.93,1.6,2.98,2.52,1.06.91,2.08,1.98,2.78,3.25.36.63.82,1,1.29,1.11.47.11.93-.02,1.21-.42.27-.39.36-1.08.03-2.02-.33-.93-1.09-2.12-2.48-3.39,0,0-.76-.99-1.9-2.27-1.14-1.28-2.66-2.81-4.03-4.02-2.75-2.42-4.17-2.59-6.67-4.29-1.25-.85-1.23-.2-.7.9Z"/>
  <path class="cls-1" d="M362.74,159.4c0,.25.1.5.18.7.19.41.54.79,1.03.77.36-.01.89-.29,1.29-.99.13-.22.24-.47.33-.78.17-.62.27-1.43.14-2.32-.12-.89-.42-1.88-.93-2.9,0,0-.46-1.46-1.41-3.27-.94-1.81-2.35-3.94-3.73-5.61-1.38-1.68-2.5-2.6-3.6-3.41-1.1-.8-2.18-1.48-3.64-2.52-.71-.49-1.04-.57-1.13-.4-.1.19.1.68.44,1.31.66,1.21,1.79,2.99,2.59,4.11,1.59,2.24,3.32,4.32,4.82,6.53.74,1.1,1.68,2.27,2.46,3.6.78,1.31,1.38,2.89,1.19,4.29-.04.35-.07.62-.02.89Z"/>
  <path class="cls-1" d="M215.15,180.71c.94.85,2,1.4,3.05,2,1.04.58,2.74.75,3.77,1.94.5.59,1.43.1,1.81-.74.38-.83.16-2.08-1.68-2.83,0,0-.49-.43-1.21-.97-.72-.54-1.67-1.18-2.54-1.63-1.75-.88-2.67-.46-4.28-.73-.81-.13-.76.41-.4,1.07.36.66,1.01,1.46,1.48,1.89Z"/>
  <path class="cls-1" d="M316.43,81.44c1.26.25,2.99-.06,5.63-1.34.17.65.27,1.03.45,1.34.23.38.43.61.78.68.59.12,1.24-.36,1.37-1,.08-.37.1-.79.03-.99-.06-.24-.22-.71-.3-1.26,2.34-1.39,5.1-3.39,6.93-5.27,2.03.69,3.16,2.5,2.7,4.8-.91,4.51-6.46,6.4-13.13,6.8l.02.45c6.49.87,14.57.1,15.77-5.85.61-3.02-1.46-6.1-4.83-7.17.09-.18.08-.51-.3-1.01-.6-.76-1.17-1.24-2.43-1.44l-.09.29c.35.35.45.65.47.96.02.2-.01.33-.08.54-1.67-.11-3.32-.09-4.48.04.3-1.05.69-2.06,1.04-2.96,2.44.02,4.6-.05,6.18-.31,1.06-.17,1.39-.41,1.52-1.06.13-.64-.31-1.06-1.3-1.26-.56-.11-1.25,0-1.58.12-.69.25-2.14.4-4,.53.21-.49.35-.76.47-.96.09-.15.32-.35.55-.5.19-.13.4-.34.45-.58.04-.19,0-.39-.18-.65-.55-.86-1.71-1.85-2.7-2.05-.48-.1-1.11,0-1.69.13l-.07.35c.59.23,1.14.56,1.36.86.24.3.15.5.05.98-.12.59-.37,1.43-.68,2.39-.88-.04-1.92-.11-2.51-.23-1.07-.22-2.28-.54-2.91-1.95l-.34.15c.33,2.62,1.42,3.31,3.42,3.72.51.1,1.1.19,1.76.22-.32,1.02-.69,2.33-1,3.47-4.83,1.19-7.69,3.81-8.15,6.11-.29,1.42.39,2.61,1.81,2.89ZM324.7,73.24c1.12-.16,2.86-.26,4.11-.14-1.62,1.95-3.24,3.13-4.67,4,.01-1.03.24-2.43.56-3.86ZM316.83,77.91c.28-1.39,1.58-2.88,5.6-4.21-.32,1.44-.49,3.24-.52,4.51-1.83.96-3.47,1.22-4.22,1.07-.75-.15-1.02-.57-.86-1.37Z"/>
  <path class="cls-1" d="M298.46,136.02c-1.58-.48-3.1-.83-5.15-1.5-1.02-.34-1.41-.35-1.42-.13,0,.22.41.68,1.06,1.21,1.3,1.08,3.47,2.53,4.91,3.44,2.9,1.79,5.85,3.39,8.58,5.26,1.35.94,2.95,1.9,4.43,3.14.75.61,1.44,1.31,2.07,2.07.62.77,1.12,1.62,1.47,2.52.15.46.36.83.53,1.15.1.16.2.3.31.43.09.13.2.24.31.34.43.38.93.49,1.31.13.37-.35.67-1.23.35-2.68-.31-1.42-1.29-3.4-3.33-5.27,0,0-1.17-1.43-3.06-3.06-1.88-1.63-4.47-3.42-6.8-4.7-2.33-1.29-4-1.87-5.59-2.35Z"/>
  <path class="cls-1" d="M322.79,123.23c1.49,2.22,3.15,4.3,4.81,6.43,1.66,2.13,4.31,4.37,6.09,7.29,1.79,2.92,5.47.91-.08-5.08,0,0-.04-.06-.11-.16-.24-.36-.87-1.31-1.71-2.51-1.07-1.54-2.46-3.49-3.77-5.09-2.65-3.19-4.18-3.74-6.91-5.85-1.39-1.03-1.32-.32-.72.89.18.36.4.77.64,1.2.56,1,1.23,2.1,1.75,2.88Z"/>
  <path class="cls-1" d="M423.82,276.22c.34-.06.7-.14,1.07-.23.37-.1.71-.19,1.24-.37,1.18-.38,2.2-1.06,2.6-2.11.39-1.09.02-2.25-.71-3.28-.18-.29-.34-.44-.52-.63-.16-.14-.29-.23-.43-.32-.28-.15-.56-.22-.82-.2-.14,0-.26.03-.38.08-.06-.17-.13-.35-.25-.54-.18-.31-.4-.69-.72-1.05-.3-.39-.69-.76-1.12-1.16-.87-.78-1.99-1.51-3.23-2.19-1.28-.69-2.69-1.31-4.14-1.84-2.86-1.06-5.83-1.82-8.21-2.33-4.76-1.02-9.54-1.66-14.25-2.31-2.35-.33-4.69-.66-6.95-1.08-1.13-.21-2.25-.44-3.29-.73-.54-.14-1.01-.3-1.53-.47l-1.66-.61c-4.41-1.64-9.4-3.43-14.39-5.87-2.08-1.03-4.16-2.18-6.15-3.49-.38-.25-.76-.5-1.14-.76-2.31-1.64-4.47-3.56-6.09-5.76-1.62-2.2-2.6-3.97-3.35-5.11-.71-1.13-1.39-1.64-1.86-.8-.11.21-.21.51-.29.9-.05.39-.06.87-.02,1.46.12,1.15.53,2.69,1.49,4.44,1.88,3.52,6.02,7.58,12.52,11.1,0,0,.26.17.74.46.48.3,1.19.72,2.09,1.23,1.8,1.02,4.38,2.37,7.42,3.77,1.52.7,3.16,1.41,4.88,2.11.86.35,1.73.7,2.62,1.04.44.17.89.34,1.34.51.45.17,1,.35,1.49.51,2,.6,3.97.98,5.89,1.31,1.92.32,3.8.58,5.59.81,7.16.87,11.87,1.16,16.27,1.64,2.19.24,4.3.5,6.55.96,1.12.22,2.27.52,3.45.91,1.18.4,2.4.91,3.57,1.64.78.49,1.31.93,1.71,1.28.15.17.31.33.45.5-.05.08-.1.17-.13.27-.08.24-.1.52-.06.83.02.16.06.32.11.49.02.09.05.17.08.26l.05.13.02.1c.04.15.03.23.01.29,0,.05-.02.11-.03.17-.01.1-.02.2-.1.34,0,0-.07,0-.17,0,0,0-.13,0-.2.01-.12,0-.24.03-.38.03-.28.02-.61.03-.96.04-1.43.02-3.35-.13-5-.24-1.09-.08-1.93-.07-2.7-.03-.77-.68-1.58-1.33-2.48-1.87l-.37-.24-.39-.22-.79-.44c-.55-.24-1.08-.55-1.66-.76-.28-.11-.56-.22-.83-.27-.27-.05-.53-.08-.77-.09-.48-.03-.89.08-1.19.21-.62.28-.81.75-.57,1.24.24.5.89.98,1.93,1.54.59.33,1.31.7,2.15,1.2-.17,0-.31.02-.4.05-.14.05-.18.13-.2.23-.05.21.28.56.76.9.8.57,2.06,1.17,3.12,1.55.23.32.48.69.72,1.1.41.78.82,1.69,1.05,2.68.06.25.08.5.13.75.02.11.02.11.01.11h-.01s-.03.01-.03.01h0s-.14-.02-.14-.02c-.25-.04-.49-.07-.71-.1-.53-.07-1.02-.14-1.48-.2-.93-.11-1.74-.19-2.54-.27-.79-.08-1.56-.15-2.4-.25-1.36-1.31-2.96-2.44-4.74-3.32-.47-.26-.95-.36-1.37-.39-.41-.05-.78.05-1.06.16-.56.25-.76.7-.59,1.21.16.51.67,1.03,1.51,1.6.83.59,1.99,1.26,3.5,2.44,0,0,.05.05.12.15.08.1.19.24.33.43.28.37.63.92.97,1.59.31.69.63,1.49.79,2.36.03.11.03.22.05.33.01.09.04.27.03.24l-.02.03h-.03s0-.01,0-.01h0s.02.02-.03.02c-.12,0-.23-.02-.35-.02-.45-.02-.87-.05-1.27-.07-.79-.03-1.49-.04-2.18-.04-1.21-.01-2.39-.02-3.89-.25-.19-.03-.37-.05-.58-.09-1.79-.36-1.45.27-.25,1.17,1.19.89,3.31,1.91,4.79,2.36.92.29,1.86.51,2.81.68l.36.06.18.03h.05c.33-.03.66-.07.99-.11.21-.02.42-.05.63-.07,0,0,.02,0,.02,0,.13-.02.21-.03.25-.04.39-.06.77-.13,1.15-.23.19-.05.39-.11.58-.17.06-.02.11-.04.17-.06.16-.08.31-.16.46-.25,0-.02,0-.03.01-.05.02-.09.03-.19.04-.28-.01.08-.02.15-.03.23.05-.13.04-.34.05-.48.11-2.4-.38-4.35-.38-4.35-.13-.42-.29-.83-.48-1.24.45.16,4.48,1.27,4.89,1.34,0-.02,0-.04,0-.07l.52.09.46.06c.35.02.7.03,1.06.03.13-.17.28-.31.47-.42.44-.33.88-.66,1.32-.99.02-.6.02-1.21-.01-1.81l-.03-.9c0-.15,0-.3-.03-.45l-.07-.37c-.08-.36-.14-.73-.23-1.08-.17-.62-.42-1.24-.72-1.84.96.08,1.93.13,2.91.12.61,0,1.26-.07,1.95-.2Z"/>
  <path class="cls-1" d="M325.57,184.43c.44-.99,1.16-2.18,2.24-3.32,1.07-1.15,2.48-2.25,4.15-3.06,1.66-.81,3.56-1.33,5.45-1.39,1.89-.07,3.76.35,5.34,1.13.79.38,1.51.86,2.15,1.38.65.51,1.21,1.09,1.69,1.66,1.94,2.32,2.66,4.59,2.71,5.3.01.61.55,1,1.27,1.21.73.2,1.7.2,2.55-.08.86-.29,1.72-.57,2.18-1.12.46-.54.54-1.38-.27-2.69-.03-.04-.06-.09-.09-.14-.47-.73-1.36-2.46-3.17-4.63-.96-1.14-2.21-2.39-3.82-3.51-1.59-1.12-3.58-2.09-5.79-2.58-2.21-.52-4.61-.53-6.93-.05-2.32.47-4.54,1.43-6.5,2.76-1.96,1.33-3.67,3.04-4.93,5.03-1.05,1.64-1.77,3.47-2.06,5.33-.06.38-.11.76-.13,1.14-.05.85-.14,2.15.07,3.64.21,1.48.72,3.12,1.49,4.56,1.52,2.92,3.8,4.96,4.48,5.51.69.57,1.26.66,1.79.42.53-.25,1.03-.87,1.66-1.8.63-.93.89-1.59.86-2.09-.01-.25-.1-.47-.24-.67-.14-.21-.33-.4-.58-.59-.13-.1-.31-.21-.55-.34-.25-.13-.55-.28-.87-.46-.67-.36-1.5-.84-2.31-1.54-.82-.69-1.61-1.62-2.12-2.79-.53-1.16-.72-2.57-.44-3.96.11-.45.28-1.25.73-2.24Z"/>
  <path class="cls-1" d="M314.99,159.31c-1.19-.26-1,.32-.36,1.08.64.76,1.68,1.74,2.36,2.33,1.39,1.15,2.82,2.1,4.09,3.23.64.55,1.42,1.1,2.15,1.79.73.69,1.36,1.58,1.58,2.6.13.5.39.82.79.98.39.15.87.15,1.26-.11.38-.25.71-.78.69-1.62-.02-.83-.42-1.99-1.47-3.16,0,0-.14-.22-.37-.59-.23-.38-.6-.86-1.05-1.42-.9-1.11-2.23-2.33-3.5-3.17-1.27-.84-2.25-1.15-3.17-1.36-.93-.2-1.82-.31-3.01-.57Z"/>
  <path class="cls-1" d="M304.91,125.67c-1.28-.98-2.97-2.16-4.5-3.04-1.52-.89-2.65-1.28-3.73-1.58-1.08-.3-2.12-.5-3.51-.95-1.39-.44-1.19.18-.42,1.06.77.88,2.08,2.06,2.98,2.76,1.81,1.39,3.74,2.52,5.64,3.74,1.88,1.2,4.65,2.2,6.65,4.25.99,1.01,2.24.82,2.54-.1.29-.91-.41-2.63-3.48-4.4,0,0-.89-.76-2.17-1.74Z"/>
  <path class="cls-1" d="M68.99,309.6l-3.8,12.9,2.31,1.04c4.7-7.46,9.55-11.11,14.69-11.11,2.16,0,2.68.6,2.68,2.76v36.69c0,5.29-.89,6.41-5.29,6.49h-1.86v2.76h21.63v-2.76h-1.86c-4.47-.07-5.37-1.19-5.37-6.49v-36.69c0-2.24.52-2.76,2.91-2.76,5.07,0,9.77,3.58,14.47,10.96l2.39-.89-3.8-12.9h-39.08Z"/>
  <path class="cls-1" d="M93.72,253.77l.18.43.21.38c.15.27.28.45.42.66,1.12,1.57,2.47,2.76,3.8,3.8,1.33,1.03,2.67,1.91,3.88,2.61,2.4,1.42,4.92,2.65,7.52,3.68,2.6,1.03,5.27,1.86,7.96,2.54,2.69.68,5.41,1.2,8.13,1.62,1.36.21,2.7.41,4.09.55l2.07.23c.69.07,1.38.1,2.08.15,2.77.22,5.72.17,8.78.03,3.06-.19,6.22-.54,9.44-1,6.43-.94,13.06-2.31,19.72-3.21,2.58-.34,4.72-.82,6.27-1.33.45-.14.85-.29,1.2-.44,1.55-.66,2.05-1.36,1.14-1.83-.91-.47-3.27-.74-7.37-.43-2.05.16-4.54.46-7.49.92-2.95.46-6.37,1.09-10.31,1.77,0,0-.33.04-.94.1-.61.06-1.5.16-2.61.27-2.23.19-5.36.47-8.98.51-3.61.05-7.71-.12-11.85-.63-2.06-.23-4.19-.57-6.24-.92-2.06-.36-4.06-.77-5.97-1.22-1.9-.45-3.62-.92-5.2-1.41-1.58-.48-3.03-.97-4.37-1.47-2.68-1-5.02-2.01-7.16-3.1-1.07-.55-2.09-1.13-3.06-1.78-.49-.32-.95-.67-1.39-1.03-.22-.18-.43-.37-.63-.57-.11-.1-.2-.19-.29-.29-.09-.1-.19-.21-.24-.27-.14-.16-.22-.26-.3-.4-.08-.13-.14-.29-.17-.46-.01-.17.01-.34.1-.49.09-.15.22-.28.38-.38.16-.11.3-.18.59-.27.11-.05.28-.08.45-.12.16-.04.33-.08.51-.1.7-.13,1.47-.18,2.27-.2,1.55-.02,2.63.03,3.31.01.02.01.05.03.07.04,1.36.73,2.86,1.28,4.41,1.81.39.12.76.15,1.08.11.32-.05.59-.17.78-.33.4-.32.52-.79.35-1.27-.08-.24-.23-.48-.45-.7-.11-.11-.23-.22-.37-.32-.14-.11-.29-.22-.47-.32-.69-.41-1.62-.75-2.99-1.29,0,0-.05-.03-.14-.1-.09-.07-.22-.17-.38-.3-.17-.12-.35-.28-.56-.48-.21-.18-.43-.41-.67-.65-.47-.49-.97-1.09-1.42-1.74-.24-.32-.45-.67-.67-1-.04-.06-.02-.04-.03-.06v-.03s-.04-.06-.04-.06l-.03-.05h0s-.03,0-.09-.03c0,0,0,0,0,0,.38-.22.63-.47.49-.69.4.09.81.18,1.27.32.76.22.83-.21.63-.84.14-.02.28-.04.43-.06.67-.04.93-.16.9-.38-.03-.21-.35-.52-.88-.81-.35-.19-.81-.37-1.3-.51-.13-.23-.25-.45-.34-.61-.29-.45-.57-.9-.86-1.36-.07-.1-.12-.21-.19-.32l-.14-.26h0s-.06,0-.09-.07c.03-.19-.04-.24-.01-.35l.03-.07.05-.06.14-.06.2-.04c.31-.04.72-.01,1.15.08.44.09.82-.12,1.02-.48.2-.36.22-.84.07-1.3-.04-.13-.1-.26-.17-.39-.17-.31-.41-.58-.74-.78-.24-.14-.53-.24-.94-.28-.41-.02-.93-.04-1.75.32,0,0-.3.05-.77.28-.45.22-1.08.76-1.45,1.37-.1.15-.22.36-.31.57-.09.21-.2.43-.29.66-.09.23-.17.47-.26.71-.02.06-.06.12-.05.18l.07.18.15.36c.09.24.21.48.32.71.1.23.24.51.32.62.1.18.22.34.33.51-.78.23-1.55.52-2.37.82.29.66.61,1.35.94,2.02.17.34.33.69.51,1.02l.54.93.27.46.19.28.38.55c.28.35.54.72.85,1.06.39.45.86.88,1.39,1.29-.51-.11-1.08-.21-1.7-.3-.65-.08-1.35-.15-2.11-.13-.38,0-.77.03-1.2.09-.23.04-.45.07-.69.14-.24.09-.51.14-.75.26-.5.21-.94.54-1.3.96-.35.43-.55.99-.58,1.56-.04.29.02.58.05.87.09.28.14.59.28.86Z"/>
  <path class="cls-1" d="M139.61,308.55c-12.45,0-22.45,12.01-22.45,26.85s10.07,26.85,22.45,26.85,22.37-12.08,22.37-26.85-10.07-26.85-22.37-26.85ZM139.53,359.49c-8.65,0-14.24-9.47-14.24-24.09,0-6.56,1.34-12.98,3.5-16.93,2.69-4.85,6.19-7.23,10.74-7.23,8.73,0,14.39,9.55,14.39,24.16s-5.67,24.09-14.39,24.09Z"/>
  <path class="cls-1" d="M195.9,341.07h1.72c4.47,0,5.52,1.19,5.52,6.26v2.39c0,6.12-4.03,9.77-10.66,9.77-9.62,0-14.91-8.28-14.91-23.27s5.52-24.98,14.62-24.98c6.26,0,11.71,3.88,16.7,11.86l2.24-1.12-4.55-13.05c-3.58,1.12-4.25,1.27-5.3,1.27-.97,0-1.86-.22-3.21-.6-2.01-.75-3.88-1.04-5.89-1.04-12.38,0-22.75,12.68-22.75,27.89,0,7.75,2.68,14.47,7.31,19.31,4.1,4.18,9.32,6.49,15.44,6.49,2.98,0,5.07-.37,9.1-1.72,3.06-.97,4.47-1.27,6.64-1.27.45,0,1.12,0,2.01.07v-11.48c0-5.59,1.04-6.79,5.44-6.79h.82v-2.76h-20.28v2.76Z"/>
  <path class="cls-1" d="M138.23,107.21c.28.37.82,1.46,1.11,2.09,1.22,2.65,2.38,4.75,3.42,6.15,1.27,1.71,2.47,2.95,3.97,3.47.37.13.9.11,1.34-.21.57-.42.52-1.03.04-1.69-.34-.46-.97-.98-1.42-1.59-.29-.39-.6-1.08-.87-1.63-.97-1.99-1.43-3.79-1.75-5.19-.38-1.65-.36-2.96.21-3.38,1.03-.76,2.96.14,5.48,3.54,3.58,4.81,4.86,9.33,1.58,15.43l.39.25c5.08-6.05,4.79-11.2.92-16.4-3.14-4.22-6.64-5.69-8.76-4.12-.98.73-1.14,2.03-.97,3.54.2,1.92.79,4.17,1.65,7.02l-.1.04c-.23-.31-.52-.7-1.02-1.42-.57-.9-1.74-3.53-2.19-5.23-.14-.51-.25-.97-.56-1.39-.26-.35-.61-.6-1.26-.83-.83-.3-1.99-.39-3.09-.14v.41c.5.17.81.31,1.04.45.28.2.59.48.85.83Z"/>
  <path class="cls-1" d="M110.76,237.42c.32.17.67.32,1.03.48.46.2.95.41,1.46.62.92.38,1.9.78,2.9,1.12,1.01.34,2.01.72,2.99,1,.98.29,1.91.55,2.75.77,6.7,1.68,13.64,2.33,20.56,2.33.86-.02,1.76-.05,2.67-.09.46-.02.92-.05,1.39-.07.47-.04.94-.09,1.42-.14.95-.1,1.93-.2,2.92-.3.99-.14,1.99-.29,3-.43,4.05-.64,8.28-1.42,12.51-2.29.53-.1,1.03-.21,1.5-.33.46-.14.89-.29,1.28-.44.78-.3,1.41-.63,1.86-.93.91-.61,1.12-1.18.47-1.48-.13-.06-.3-.11-.5-.15-.8-.15-2.15-.11-4.16.2-2.54.3-6.1,1.09-11.04,1.94,0,0-.21.02-.59.07-.38.05-.94.1-1.64.15-.7.06-1.55.12-2.5.2-.95.09-2.03.09-3.17.15-4.4.18-9.95.01-14.79-.43-.2-.02-.41-.03-.61-.05-4.97-.49-8.29-.86-11.41-1.26-3.13-.37-6.05-.81-10.15-1.83-4.07-1.09-3.05-.24-.15,1.2Z"/>
  <path class="cls-1" d="M254.96,354.12c-3.73,2.91-8.13,4.18-13.87,4.18-4.92,0-5.89-.89-5.89-5.44v-16.7h2.31c7.9,0,10.59,2.01,11.49,8.95h2.46v-20.43h-2.46c-1.27,6.71-3.66,8.58-11.34,8.58h-2.46v-15.44c0-4.25,1.34-5.29,6.79-5.29,8.06,0,12.83,2.76,18.2,10.66l2.31-.9-4.47-12.68h-36.84v2.76h1.42c4.4,0,5.29,1.12,5.29,6.41v33.11c0,5.37-.9,6.41-5.29,6.49h-1.42v2.76h37.96l4.85-13.42-2.01-.97c-2.61,3.36-4.7,5.52-7.01,7.38Z"/>
  <path class="cls-1" d="M148.57,182.4c-3.18-.37,1,2,3.62,3.09.16.07.32.13.47.19,2.53.98,5.11,1.62,7.62,2.4,1.25.39,2.71.68,4.2,1.13,1.5.44,3.04,1.03,4.39,1.97,1.33.93,2.66.64,2.77-.35.05-.49-.23-1.16-1.02-1.92-.8-.73-2.11-1.57-4.12-2.2,0,0-.31-.15-.85-.4-.53-.26-1.29-.59-2.17-.96-1.77-.72-4.08-1.5-6.07-2.02-2.12-.54-3.54-.65-4.9-.7-1.2-.04-2.37-.04-3.95-.23Z"/>
  <path class="cls-1" d="M158.48,167.19c.22.17.48.35.75.53.68.45,1.47.89,2.06,1.16,1.64.74,3.31,1.21,4.94,1.8.81.29,1.78.47,2.78.77.99.29,2.01.73,2.83,1.45.8.71,1.87.32,2.16-.57.14-.44.06-1.04-.4-1.66-.47-.62-1.33-1.27-2.7-1.74,0,0-.21-.12-.56-.33-.35-.21-.85-.47-1.44-.77-1.18-.59-2.74-1.22-4.11-1.6-.31-.09-.6-.15-.87-.2-.93-.18-1.68-.19-2.38-.16-.91.05-1.76.17-2.93.18-1.17,0-.89.53-.12,1.13Z"/>
  <path class="cls-1" d="M112.75,132.84c.53.55,1.11,1.52,1.67,2.43,1.88,3.08,3.73,5.68,5.36,7.29,1.69,1.66,4.11,3.59,6.04,4.01.66.14,1.16.13,1.52-.24.45-.47.27-1.1-.23-1.58-.37-.36-1.19-.8-1.53-1.12-.26-.25-.79-.75-1.25-1.42-1.87-2.66-3.1-5.27-4.14-7.93-.24-.61-.14-1.15.24-1.55.19-.2.45-.36.74-.5.74-.34,1.27-.78,1.63-1.15.41-.43,1.09-1.22,2.31-2.73,1.99,1.75,3.74,3.31,5.56,5.03-.61.44-1.29,1.07-1.89,1.7-1.41,1.48-2.02,3.57-.63,4.91,1.08,1.04,3.12.84,4.72-.84,1.64-1.71,2.22-3.61,1.33-5.25,1.36-.28,2.32-.38,3.19-.34.62.03.98-.08,1.42-.53.51-.53.3-1.38-.12-1.77-.31-.3-.76-.54-1.26-.53-1.43.03-3,.49-4.69,1.32-2.04-1.73-3.93-3.42-6.15-5.44,1.03-1.31,1.91-2.39,2.66-3.34.34-.43.27-.87-.2-1.33-.47-.45-1.45-.33-2.38.63-.34.35-.39.61-.46.8-.18.47-.52.94-1.14,1.74-.43-.41-.83-.79-1.28-1.26-.45-.47-.56-.8-.64-1.1-.08-.31-.18-.52-.36-.69-.16-.15-.39-.26-.66-.26-1.06.04-2.58.81-3.23,1.48-.32.33-.54.69-.7,1.56l.27.19c.51-.49.97-.81,1.41-.84.46-.05.78.21,1.21.59.83.71,1.81,1.54,2.59,2.26-1.35,1.76-2.1,2.71-2.93,3.61-.62.69-.92.93-1.17,1.18-.32.33-.79,1.02-.23,2.68.74,2.18,1.76,4.86,2.98,7.45.04.11.04.15,0,.19q-.06.02-.14-.02c-.43-.34-.96-.81-1.55-1.41-1.22-1.25-2.68-3.55-3.83-5.85-.4-.8-.55-1.36-.71-1.85-.17-.5-.29-.84-.52-1.07-.37-.36-.76-.58-1.33-.7-.93-.21-1.68-.33-2.22-.28-.56.07-.98.2-1.32.36v.39c.88.15,1.41.51,2.02,1.13ZM131.41,138.22c-1.22,1.28-2.2,1.44-2.76.91-.69-.66-.23-1.81.56-2.63.79-.83,1.76-1.45,2.62-1.83.93,1.08.75,2.34-.42,3.56Z"/>
  <path class="cls-1" d="M464.67,169.43c-1.37.7-2.81,1.65-4.3,2.65-1.49,1.01-3.04,2.1-4.67,3.01-.41.23-.75.45-1.04.66-.28.22-.5.41-.66.58-.31.35-.37.65-.06.75.31.11,1.02.03,2.08-.46,1.06-.48,2.48-1.35,4.32-2.63,0,0,1.28-.77,3.08-1.74,1.79-.98,4.12-2.11,6.17-2.92,2.05-.78,3.42-1.3,4.74-1.71.66-.2,1.29-.44,2.01-.57.71-.16,1.48-.35,2.4-.41,1.84-.18,1.31-.41-.12-.59-1.44-.23-3.76-.06-5.29.2-3.06.55-5.94,1.77-8.66,3.18Z"/>
  <path class="cls-1" d="M451.54,168.98c-.68.71-1.04,1.43-1.17,1.92-.13.49-.02.75.31.68.72-.12,1.99-1.65,5.19-4.72,0,0,.29-.23.79-.62.49-.39,1.21-.9,2.05-1.5,1.68-1.18,3.92-2.56,5.85-3.74,3.87-2.38,5.02-3.46,8.07-5.76,1.52-1.17.89-1.04-.41-.44-1.31.6-3.35,1.6-4.7,2.3-2.68,1.41-5.31,2.96-7.86,4.68-2.55,1.72-5.46,4.32-8.11,7.2Z"/>
  <path class="cls-1" d="M444.64,312.36h1.42c4.4,0,5.3,1.12,5.3,6.41v33.11c0,5.37-.89,6.41-5.3,6.49h-1.42v2.76h37.96l4.85-13.42-2.01-.97c-2.61,3.36-4.7,5.52-7.01,7.38-3.73,2.91-8.13,4.18-13.87,4.18-4.92,0-5.89-.89-5.89-5.44v-16.7h2.31c7.9,0,10.59,2.01,11.48,8.95h2.46v-20.43h-2.46c-1.27,6.71-3.65,8.58-11.33,8.58h-2.46v-15.44c0-4.25,1.34-5.29,6.79-5.29,8.05,0,12.83,2.76,18.2,10.66l2.31-.9-4.47-12.68h-36.84v2.76Z"/>
  <path class="cls-1" d="M419.37,341.07h1.71c4.47,0,5.52,1.19,5.52,6.26v2.39c0,6.12-4.03,9.77-10.66,9.77-9.62,0-14.92-8.28-14.92-23.27s5.52-24.98,14.62-24.98c6.26,0,11.71,3.88,16.7,11.86l2.24-1.12-4.55-13.05c-3.58,1.12-4.25,1.27-5.3,1.27-.97,0-1.86-.22-3.21-.6-2.01-.75-3.88-1.04-5.89-1.04-12.38,0-22.75,12.68-22.75,27.89,0,7.75,2.69,14.47,7.31,19.31,4.1,4.18,9.32,6.49,15.44,6.49,2.98,0,5.07-.37,9.1-1.72,3.06-.97,4.47-1.27,6.64-1.27.45,0,1.12,0,2.01.07v-11.48c0-5.59,1.04-6.79,5.44-6.79h.82v-2.76h-20.28v2.76Z"/>
  <path class="cls-1" d="M292.46,309.6l-3.8,12.9,2.31,1.04c4.7-7.46,9.55-11.11,14.69-11.11,2.16,0,2.69.6,2.69,2.76v36.69c0,5.29-.89,6.41-5.29,6.49h-1.87v2.76h21.63v-2.76h-1.86c-4.48-.07-5.37-1.19-5.37-6.49v-36.69c0-2.24.52-2.76,2.91-2.76,5.07,0,9.77,3.58,14.47,10.96l2.39-.89-3.8-12.9h-39.08Z"/>
  <path class="cls-1" d="M363.07,308.55c-12.45,0-22.45,12.01-22.45,26.85s10.07,26.85,22.45,26.85,22.37-12.08,22.37-26.85-10.07-26.85-22.37-26.85ZM363,359.49c-8.65,0-14.24-9.47-14.24-24.09,0-6.56,1.34-12.98,3.5-16.93,2.68-4.85,6.19-7.23,10.74-7.23,8.73,0,14.39,9.55,14.39,24.16s-5.67,24.09-14.39,24.09Z"/>
  <path class="cls-1" d="M394.06,280.89c.02-.13.03-.26,0-.41-.13-.94-1.1-1.32-2.51-1.58-1.42-.23-3.27-.35-5.2-.73-.97-.21-2.79-.55-5.12-.97-2.33-.4-5.17-.88-8.19-1.39-3.01-.52-6.18-1.11-9.16-1.79-2.98-.68-5.76-1.49-8.06-2.24-1.14-.39-2.34-.85-3.56-1.36-1.21-.56-2.48-1.1-3.7-1.8-.62-.34-1.24-.68-1.86-1.02-.62-.37-1.24-.75-1.87-1.12-1.24-.76-2.46-1.55-3.64-2.35-4.74-3.2-8.79-6.66-11.07-9.18-1.8-1.96-3.77-2.85-6.1-3.34-2.33-.49-4.98-.6-7.99-1.05-1.63-.24-4.2.51-2.71,2.33,1.4,1.73,3.24,3.57,4.82,4.27,1.27.58,2.75,1.32,4.24,2.12-2.19.21-5.09.74-8.73,1.7-5.08,1.33-9.42,2.63-13.59,3.69-4.16,1.09-8.15,1.91-12.43,2.64-8.55,1.44-17.96,2.66-31.22,3.1-13.27.43-26.1.27-37.89-.29-5.89-.29-11.51-.72-16.79-1.33-5.28-.6-10.23-1.33-14.82-2.02-1.73-.26-3.28-.43-4.66-.52-5.76-.37-8.31.68-6.4,2.19,1.18.93,4.06,2.04,8.96,3.05,2.45.51,5.41.98,8.91,1.35,3.51.37,7.58.63,12.21.62,4.94-.03,8.82-.06,12.3-.08,3.47,0,6.54,0,9.87.06,6.65.07,14.38.25,28.39-.35,11.19-.51,21.69-.84,31.73-1.61.63-.05,1.25-.1,1.88-.15.63-.06,1.25-.12,1.87-.18,1.24-.11,2.49-.28,3.72-.43,2.47-.34,4.89-.76,7.26-1.25,4.75-.98,9.29-2.23,13.65-3.43,3.37-.93,6.09-1.98,8.01-2.96.91-.47,1.63-.91,2.15-1.34.65.39,1.27.76,1.78,1.08,1.27.81,3.14,1.91,4.92,2.94,1.78,1.05,3.47,2.06,4.31,2.86.42.4,1.74,1.07,3.54,1.85.89.4,1.91.81,2.99,1.24,1.1.43,2.29.86,3.48,1.3,4.79,1.69,9.86,2.82,11.57,3.69.43.23,1.17.52,2.16.8.99.3,2.21.62,3.59.9,2.76.61,6.14,1.14,9.44,1.6,3.31.46,6.56.89,9.12,1.28,1.28.19,2.39.39,3.27.53.87.15,1.49.29,1.8.35,1.24.27,2.62.32,3.67.06.89-.22,1.54-.66,1.65-1.36Z"/>
  <path class="cls-1" d="M213.18,159.4s-.97-.83-2.36-1.86c-1.4-1.04-3.23-2.26-4.86-3.2-3.26-1.86-4.72-1.76-7.61-2.89-2.9-1.12.74,2.54,2.71,4.05,1.97,1.51,4.08,2.71,6.13,3.99,1.03.64,2.26,1.22,3.51,1.92,1.25.7,2.5,1.55,3.51,2.66.51.55,1.05.81,1.54.83.49.01.91-.22,1.09-.68.17-.45.1-1.15-.45-2-.54-.85-1.56-1.85-3.21-2.82Z"/>
  <path class="cls-1" d="M224.06,123.04c1.44.86,3.75,2.08,5.31,2.81,0,0,0,0,0,0,3.11,1.46,6.3,2.7,9.4,4.09,1.55.7,3.35,1.34,5.17,2.19,1.79.84,3.69,1.89,4.97,3.36.64.72,1.13,1.12,1.61,1.32.43.19.97.27,1.28-.14.15-.2.28-.57.2-1.04-.03-.24-.09-.52-.21-.8-.06-.14-.12-.3-.2-.45-.08-.15-.17-.3-.28-.46-.82-1.28-2.41-2.66-4.83-3.86,0,0-1.5-1.01-3.65-2.17-2.15-1.17-4.95-2.49-7.42-3.44-2.46-.96-4.2-1.36-5.83-1.66-.68-.11-1.34-.22-2.04-.33-.99-.16-2.04-.33-3.32-.54-1.09-.18-1.52-.09-1.46.13.05.22.56.57,1.28,1Z"/>
  <path class="cls-1" d="M215.45,195.04c1.04.69,2.7,1.56,3.82,2.07,2.24.99,4.52,1.73,6.77,2.59,2.23.84,5.34,1.36,7.82,3.14,1.22.88,2.48.53,2.61-.44.13-.94-.96-2.65-4.57-3.93,0,0-1.1-.62-2.67-1.38-1.57-.75-3.62-1.62-5.43-2.2-1.81-.58-3.09-.74-4.29-.81-1.2-.07-2.34-.05-3.91-.17-1.57-.12-1.18.44-.15,1.13Z"/>
  <path class="cls-1" d="M220.26,134.96s.04.03.05.04c1.77,1.51,3.8,2.63,5.74,3.72.98.56,2.15,1.02,3.34,1.61,1.18.59,2.39,1.3,3.4,2.3,1,.99,2.25.77,2.52-.16.27-.9-.43-2.64-3.59-4.29,0,0-.92-.73-2.26-1.64-1.34-.91-3.06-1.96-4.52-2.79-2.37-1.36-3.71-1.6-5.51-2.29-.42-.16-.85-.34-1.34-.57-2.59-1.25.36,2.54,2.17,4.07Z"/>
  <path class="cls-1" d="M209.25,139.09c-1.34-.95-3.08-2.18-4.67-3.13-.87-.51-1.62-.87-2.31-1.15-.58-.23-1.12-.41-1.66-.54-1.16-.31-2.29-.5-3.84-.8-1.58-.26-1.18.35-.26,1.11.92.78,2.31,1.88,3.25,2.59.98.72,2,1.41,3.03,2.08.95.62,1.91,1.23,2.89,1.84,1.02.64,2.28,1.21,3.6,1.84,1.32.64,2.71,1.31,4.06,2.16.67.44,1.36.5,1.83.34.48-.16.75-.54.74-1.04-.02-.5-.32-1.07-.99-1.68-.68-.61-1.73-1.28-3.35-2.01,0,0-.97-.69-2.31-1.63Z"/>
  <path class="cls-1" d="M210.53,70.16c.64-.23.84-.73.62-1.35-.2-.57-.6-.97-1.53-1.22-1.12-.3-2.38-.11-3.51.2v.4c1.26.22,2.19.64,3.02,1.42.66.63,1.05.67,1.41.54Z"/>
  <path class="cls-1" d="M226.06,83.89c1.94-.42,3.38-2.13,4.9-6.7,2.08-.31,4.42-.4,6.39-.19-.48,4.33-1.75,7.14-3.84,9.54l.31.27c3.33-1.93,5.06-4.81,5.84-9.56,1.78.39,3.26.87,4.5,1.45.58.27,1.12.44,1.73.29.53-.14.88-.74.77-1.41-.09-.57-.27-1.03-.81-1.39-.35-.23-.69-.36-1.01-.46-.27-.08-.67-.17-1.28-.29-.96-.22-1.96-.33-3.57-.44.07-.9.08-1.55.12-2.16.03-.28.09-.63.28-.95.1-.19.14-.42.09-.63-.05-.27-.31-.58-.79-.87-1.02-.63-1.86-.96-2.69-.79-.4.08-.77.18-1.13.34l-.02.45c1.08.23,1.37.58,1.52,1.3.18.88.17,2.08.12,3.2-2.11.01-3.97.17-6.06.54.54-2.11,1.04-4.72,1.55-7.27.14-.67.29-.92.59-1.34.22-.29.27-.47.21-.74-.05-.24-.17-.41-.5-.7-.7-.55-2.17-1.11-2.76-1-.43.09-.65.24-.94.58-.22.27-.76.52-1.57,1.01-.77.46-1.36.69-1.63.75-.24.05-.42,0-.71-.22-.29-.22-.52-.51-.69-.81l-.42.11c-.01.61.04.85.1,1.18.2.99,1.58,2.29,2.67,2.07.24-.05.49-.21.63-.43.19-.29.37-.52.61-.71.81-.67,1.39-1.12,1.73-1.19.21-.04.32.07.36.29.05.27.04.63-.01,1.17-.2,1.88-.61,4.55-1.34,7.75-4.49,1.16-6.59,3.82-6.13,6.09.3,1.5,1.39,2.19,2.91,1.86ZM228.84,77.62c-1.08,3.42-2.36,4.37-3.19,4.54-.72.15-1.07-.06-1.23-.86-.26-1.28.96-2.95,4.42-3.68Z"/>
  <path class="cls-1" d="M233.01,161.21c2.19,1.55,4.43,2.93,6.56,4.48,1.07.76,2.34,1.53,3.6,2.46,1.27.92,2.5,2.04,3.4,3.41.46.67.97,1.08,1.48,1.2.5.13.97-.01,1.21-.44.23-.42.26-1.18-.21-2.19-.46-1.01-1.43-2.29-3.11-3.62,0,0-.25-.25-.67-.68-.41-.44-1.04-1-1.76-1.66-1.46-1.3-3.44-2.8-5.25-3.9-1.81-1.09-3.15-1.6-4.43-1.98-1.28-.38-2.5-.65-4.17-1.14-1.68-.48-1.35.16-.36,1.08.99.93,2.62,2.19,3.7,2.99Z"/>
  <path class="cls-1" d="M207.82,72.48c.59-.21.91-.7.67-1.37-.22-.62-.73-1.01-1.45-1.25-1.04-.32-2.5-.21-3.54.04l-.03.41c1.1.25,2.2.81,2.91,1.52.58.58.98.81,1.44.65Z"/>
  <path class="cls-1" d="M164.39,89.74c.49.05.85.45,1.37,1.43.33.63.92,1.8,1.48,2.92-.52.89-1.03,1.56-1.43,2.02-.31.35-.73.72-1.04.89-.36.19-.84.29-1.58.03l-.25.35c.61.69,1.23,1.11,1.89,1.31.52.16,1.24.18,1.52.03.29-.15.43-.47.59-.81.22-.46.6-1.09,1.25-2.01l.46.93c.22,1.95.07,3.23-.13,4.32-.37,2.04-.72,3.25-1.17,4.68-.13.4-.22.98.03,1.46.38.72,1.04.93,1.55.66.41-.22.72-.69.86-1.47.11-.55.18-1.11.22-1.57.98.41,1.72.82,2.72,1.59.31.24.6.49.81.77.65.89,1.08,1.06,1.52.83.67-.36.92-1.41-.17-3.48-.5-.94-1.78-2.91-3.5-6.17.92-3.63,1.69-5.97,2.18-7.25.47-1.21,1.07-2.35,1.96-2.82,1.66-.88,3.23-.19,5.41,3.96.99,1.88,1.48,2.92,1.7,3.69-.89.13-1.98.46-2.84.92-2.22,1.17-2.69,2.96-2.04,4.19.71,1.35,2.43,1.86,4.72.65,1.47-.78,2.54-2.02,2.85-3.47.61.17,1.28.5,2.08.91.42.21.91.32,1.46.03.72-.38.9-1.09.53-1.79-.25-.48-.71-.83-1.01-.98-.76-.4-1.9-.57-3.16-.61-.31-1.22-.8-2.51-1.73-4.27-2.38-4.51-5.26-6.01-8.13-4.49-1.33.7-2.17,1.91-2.93,3.92-.51,1.32-1.14,3.04-2.03,5.51l-.31-.76c0-.74.07-1.33.1-1.68.03-.35.08-.72.11-.95.03-.29.06-.46-.03-.63-.14-.27-.57-.32-.99-.31-.3,0-.47.03-.63.15-.3-.74-.59-1.47-.71-1.87-.12-.34-.16-.65-.07-.95.09-.36.07-.56-.03-.76-.18-.34-.46-.53-1.35-.64-1.16-.16-2.19.05-2.75.34-.41.22-.89.59-1.2,1l.19.42c.57-.21,1.03-.21,1.62-.14ZM181.16,100.58c-1.21.64-2.23.68-2.6-.02-.27-.51-.12-1.45,1.4-2.25,1.04-.55,2.12-.59,3.08-.42,0,1.05-.53,1.97-1.88,2.69ZM170.6,100.94c.73,1.44,1.18,2.3,1.79,3.52.05.1.03.17-.02.2-.05.03-.09.01-.15.02-.68-.07-1.3-.18-2.14-.38.14-1.09.32-2.02.51-3.35Z"/>
  <path class="cls-1" d="M258.66,160.34c.4-.07.8-.33,1.02-.74.22-.4.28-.97-.03-1.63-.31-.64-1-1.39-2.2-1.98,0,0-.17-.14-.46-.37-.29-.24-.72-.54-1.22-.89-1.01-.68-2.36-1.44-3.58-1.92-1.22-.48-2.11-.57-2.95-.59-.84,0-1.63.06-2.69,0-1.06-.06-.85.47-.22,1.12.63.64,1.67,1.42,2.36,1.85,1.39.84,2.83,1.41,4.21,2.1.69.34,1.53.59,2.38.97.85.37,1.69.88,2.29,1.65.3.38.69.51,1.1.44Z"/>
  <path class="cls-1" d="M245.86,187.2c2.4,1.26,5.75,2.2,8.63,4.08,1.44.94,2.79.54,2.8-.46.01-1-1.26-2.56-5.03-4.11,0,0-1.16-.7-2.76-1.67-1.61-.96-3.67-2.15-5.5-3.09-3.67-1.85-5.25-1.78-8.53-2.8-1.65-.5-1.35.14-.37,1.08.98.94,2.61,2.2,3.74,2.97,2.26,1.51,4.64,2.74,7.04,4Z"/>
  <path class="cls-1" d="M192.16,84.04c.67.17,1.14.12,1.47,0,.36-.13.61-.3.88-.63.3-.37.74-.69,1.34-1.11,1.73-1.16,3.66-2.31,5.91-3.48.5,1.33.83,2.25,1.14,3.21-.52-.08-.96,0-1.73.27-1.23.44-2.51,2.31-1.81,4.28.76,2.16,2.28,3.01,4.29,2.3.44-.15,1.07-.49,1.32-.93.3,3.37-1.53,6.38-4.8,8.9l.26.4c5.95-3.21,8.32-7.14,6.57-12.07-.26-.75-.81-1.62-1.34-2.24-.81-2.11-1.51-4.09-1.86-5.1,1.02-.48,2.08-.91,3.11-1.27.9-.32,1.79-.58,2.62-.76,1-.21,2.16-.27,2.83-.51.64-.23.88-.69.68-1.25-.14-.39-.46-.73-1.05-.84-1.31-.26-2.35-.18-2.89.01-.23.08-.49.32-.67.47-.29.25-.69.5-1.07.67-1.45.66-2.52,1.13-4.09,1.85-.18-.6-.31-1.11-.43-1.7-.07-.35-.11-.71,0-1.13.08-.26.09-.55-.03-.89-.08-.23-.29-.56-.74-.69-1.1-.33-2.51-.38-3.1-.18-.49.17-1.25.79-1.67,1.4l.15.26c1.06-.29,1.67-.33,1.99-.1.32.26.39.44.7,1.25.27.68.61,1.55,1.04,2.78-2.69,1.39-5.43,2.79-7.41,3.81-.73.38-1.23.61-1.64.76-.46.16-.77.19-1.06.2-.49,0-1-.14-1.39-.32l-.25.26c.14.39.44.91.81,1.22.45.36,1.07.66,1.9.89ZM203.83,84.65c.42,1.18-.11,2.21-.86,2.47-.95.34-1.89-.03-2.33-1.26-.44-1.23.03-2.36.93-2.67.87-.31,1.86.35,2.25,1.46Z"/>
</svg>